#!OML:ASF F:\twosubjects\two\wednesday\Session 1\rory1.ASF
:FULLY-SPECIFIED
:DEGREES
556
root 12.1764 15.8945 -23.1455 9.15262 -77.0706 -16.8295
lowerback 9.43792 5.17629 3.68711
upperback 3.99675 7.08806 0.369182
thorax -0.702402 3.53471 -2.3401
lowerneck -4.59618 7.40188 13.8712
upperneck 7.86256 9.88711 -11.5991
head 4.37148 4.80864 -5.24013
rclavicle 1.81888e-014 1.59028e-015
rhumerus -18.2385 -4.25577 -70.9506
rradius 42.3387
rwrist -3.3649
rhand -25.4982 44.7222
rfingers 7.12502
rthumb 1.03039 14.745
lclavicle 1.81888e-014 1.59028e-015
lhumerus -32.8265 -16.5036 81.0568
lradius 64.1096
lwrist 18.7159
lhand -8.29299 3.94092
lfingers 7.12502
lthumb 17.6269 33.1619
rfemur -21.8551 2.83876 10.6686
rtibia 61.0825
rfoot -16.2109 -14.5684
rtoes -18.2998
lfemur -30.0937 7.84372 -9.98442
ltibia 77.2
lfoot -21.9199 -7.97085
ltoes -7.40632
557
root 12.2932 15.8284 -23.0999 9.36359 -77.9665 -17.7742
lowerback 10.1041 5.07208 3.38001
upperback 4.11944 6.93539 0.477617
thorax -0.9994 3.44413 -2.10992
lowerneck -3.62893 7.36074 13.646
upperneck 7.07369 9.90056 -11.4748
head 3.95572 4.84481 -5.20368
rclavicle 5.22307e-014 -2.42517e-014
rhumerus -17.5831 -3.91566 -70.6945
rradius 41.8186
rwrist -3.0016
rhand -24.8035 44.1822
rfingers 7.12502
rthumb 1.70134 14.2092
lclavicle 5.22307e-014 -2.42517e-014
lhumerus -33.3664 -16.1434 80.9621
lradius 64.3869
lwrist 18.808
lhand -12.0937 4.30157
lfingers 7.12502
lthumb 13.9667 33.8124
rfemur -22.5503 2.74492 10.4717
rtibia 62.2184
rfoot -15.7164 -14.1714
rtoes -18.7965
lfemur -29.5653 8.08963 -9.31795
ltibia 79.2618
lfoot -22.4795 -7.36324
ltoes -11.0406
558
root 12.3935 15.7721 -23.0375 8.02429 -78.6106 -17.0835
lowerback 10.3491 4.90604 2.80541
upperback 4.31421 6.65473 0.436697
thorax -1.00908 3.29634 -1.82494
lowerneck -2.62399 7.36238 13.3359
upperneck 6.3208 9.95399 -11.0292
head 3.53106 4.90956 -5.05451
rclavicle 5.21313e-014 -9.54166e-015
rhumerus -16.8774 -3.83899 -70.5889
rradius 41.2931
rwrist -2.74166
rhand -23.8211 44.0869
rfingers 7.12502
rthumb 2.65012 14.1236
lclavicle 5.21313e-014 -9.54166e-015
lhumerus -33.8682 -15.8938 80.6276
lradius 64.8241
lwrist 19.1369
lhand -15.5374 4.90547
lfingers 7.12502
lthumb 10.6464 34.6158
rfemur -22.9356 2.23891 9.85376
rtibia 63.0712
rfoot -15.5767 -13.572
rtoes -19.2514
lfemur -28.9153 7.84034 -9.08867
ltibia 81.2214
lfoot -22.9543 -7.0789
ltoes -11.1554
559
root 12.487 15.718 -22.9662 6.20111 -79.0844 -15.764
lowerback 10.0646 3.55245 1.43916
upperback 5.13393 4.69182 1.11222
thorax -0.269777 2.29021 -0.126901
lowerneck -2.96619 8.75187 10.6059
upperneck 5.9095 11.8751 -10.5475
head 3.50943 5.79963 -4.32748
rclavicle 5.98466e-014 -3.08116e-015
rhumerus -13.4171 0.144148 -70.7977
rradius 40.2626
rwrist -2.59176
rhand -24.5583 44.5812
rfingers 7.12502
rthumb 1.93812 14.6102
lclavicle 5.98466e-014 -3.08116e-015
lhumerus -34.1977 -11.4342 80.1478
lradius 65.3106
lwrist 19.05
lhand -19.3763 6.08768
lfingers 7.12502
lthumb 6.9419 35.9539
rfemur -23.2031 1.51923 9.09527
rtibia 63.5789
rfoot -15.1288 -13.1717
rtoes -20.7692
lfemur -28.3585 7.45473 -8.92662
ltibia 83.0969
lfoot -22.6866 -7.74911
ltoes -7.55666
560
root 12.5871 15.6656 -22.9034 6.34674 -79.6762 -16.6715
lowerback 10.3362 3.41709 1.01474
upperback 5.47174 4.45651 1.23434
thorax -0.112007 2.1568 0.252977
lowerneck -3.61336 9.06295 10.8083
upperneck 6.65064 12.2802 -10.5757
head 3.89692 5.97612 -4.29192
rclavicle 2.21148e-014 -2.19657e-014
rhumerus -12.4174 0.0257266 -70.6578
rradius 39.6368
rwrist -1.987
rhand -24.9412 44.8721
rfingers 7.12502
rthumb 1.56833 14.8981
lclavicle 2.21148e-014 -2.19657e-014
lhumerus -34.1186 -11.8978 79.9382
lradius 65.4723
lwrist 19.5857
lhand -24.0075 8.08166
lfingers 7.12502
lthumb 2.47013 38.0471
rfemur -23.0849 1.30382 8.85739
rtibia 63.7213
rfoot -14.8213 -12.9409
rtoes -21.9246
lfemur -27.4113 7.2985 -8.15725
ltibia 84.8747
lfoot -22.1672 -8.85977
ltoes -5.27927
561
root 12.682 15.6136 -22.852 5.57898 -80.5973 -16.7169
lowerback 10.608 3.79665 0.315432
upperback 5.60822 4.88853 1.1711
thorax -0.169953 2.35606 0.518211
lowerneck -4.15571 9.03041 11.5345
upperneck 7.93823 12.1919 -10.2703
head 4.39201 5.93713 -4.27149
rclavicle -3.61788e-014 -7.35503e-015
rhumerus -12.5749 -1.38798 -70.3336
rradius 39.4868
rwrist -1.54077
rhand -24.854 44.899
rfingers 7.12502
rthumb 1.65256 14.9256
lclavicle -3.61788e-014 -7.35503e-015
lhumerus -34.2512 -13.7043 79.9334
lradius 65.7052
lwrist 19.9504
lhand -28.9266 10.5814
lfingers 7.12502
lthumb -2.28082 40.549
rfemur -22.7067 1.58316 8.39999
rtibia 63.519
rfoot -14.9608 -12.5118
rtoes -22.7791
lfemur -26.0768 7.28414 -7.63996
ltibia 86.5189
lfoot -21.9598 -9.93308
ltoes -4.56055
562
root 12.769 15.5661 -22.7978 3.71098 -81.5101 -15.4413
lowerback 10.4092 2.94003 -1.21643
upperback 5.85723 3.60728 1.83084
thorax 0.0725447 1.6655 2.20618
lowerneck -3.68822 10.0225 8.90121
upperneck 8.23855 13.6882 -9.43436
head 4.33009 6.63431 -3.5099
rclavicle -5.34607e-014 -1.16786e-014
rhumerus -10.9909 1.92928 -70.0097
rradius 39.2902
rwrist -1.9875
rhand -25.0436 44.7209
rfingers 7.12502
rthumb 1.4695 14.7463
lclavicle -5.34607e-014 -1.16786e-014
lhumerus -35.6295 -10.498 80.2131
lradius 66.2278
lwrist 18.9417
lhand -21.4461 6.37944
lfingers 7.12502
lthumb 4.94359 36.3018
rfemur -22.3183 1.97208 7.67872
rtibia 63.0061
rfoot -15.6511 -11.7977
rtoes -21.6286
lfemur -24.8856 7.07941 -7.49811
ltibia 88.0175
lfoot -21.5165 -10.442
ltoes -5.221
563
root 12.8635 15.5216 -22.7224 5.44395 -81.9492 -17.6862
lowerback 10.453 0.70679 -2.19674
upperback 6.01979 0.530873 3.12291
thorax 0.36204 0.0590725 4.43131
lowerneck -2.92477 12.0836 3.28479
upperneck 7.65375 16.6677 -8.39625
head 3.75284 8.00425 -2.24143
rclavicle 3.39922e-014 -3.49861e-014
rhumerus -7.79509 9.2504 -69.5657
rradius 39.0778
rwrist -3.13347
rhand -24.7628 44.4575
rfingers 7.12502
rthumb 1.74062 14.4848
lclavicle 3.39922e-014 -3.49861e-014
lhumerus -37.6006 -3.0469 80.1442
lradius 66.8049
lwrist 17.7798
lhand -20.18 6.3869
lfingers 7.12502
lthumb 6.16605 36.2772
rfemur -21.7667 2.15317 7.51897
rtibia 62.152
rfoot -16.5457 -11.0689
rtoes -19.6678
lfemur -24.0404 6.67538 -6.81296
ltibia 89.4752
lfoot -20.8924 -10.1003
ltoes -10.7938
564
root 12.9581 15.4777 -22.6295 9.60424 -82.1469 -22.2811
lowerback 10.2123 0.554534 -1.70143
upperback 6.05646 0.367378 3.23252
thorax 0.54753 -0.0183037 4.28052
lowerneck -2.90502 11.8837 3.12796
upperneck 7.96349 16.4084 -8.20958
head 3.79956 7.86817 -2.17609
rclavicle -4.32357e-015 1.11319e-014
rhumerus -7.85459 8.37105 -69.3389
rradius 39.35
rwrist -3.43569
rhand -24.183 44.6777
rfingers 7.12502
rthumb 2.30059 14.7104
lclavicle -4.32357e-015 1.11319e-014
lhumerus -37.2554 -3.4816 79.9763
lradius 66.5864
lwrist 17.7604
lhand -29.4282 11.4604
lfingers 7.12502
lthumb -2.76527 41.4222
rfemur -21.0645 2.12663 7.65841
rtibia 60.9995
rfoot -17.3098 -10.6586
rtoes -20.3162
lfemur -23.2511 6.17731 -5.78225
ltibia 90.8122
lfoot -19.8743 -10.2958
ltoes -14.8098
565
root 13.0428 15.4487 -22.5219 13.6124 -82.6279 -26.6318
lowerback 9.51413 2.62988 -0.382407
upperback 5.72921 3.27868 2.10927
thorax 0.471938 1.51789 2.09723
lowerneck -2.31759 9.34513 7.81185
upperneck 8.52549 12.8124 -8.28224
head 3.96215 6.24702 -3.13888
rclavicle -3.69724e-014 -2.45996e-015
rhumerus -11.7709 0.04996 -69.1605
rradius 40.0483
rwrist -2.91169
rhand -24.2371 45.1285
rfingers 7.12502
rthumb 2.24834 15.1606
lclavicle -3.69724e-014 -2.45996e-015
lhumerus -35.4134 -11.7223 79.9235
lradius 65.5347
lwrist 18.2243
lhand -27.9658 11.0195
lfingers 7.12502
lthumb -1.35287 40.9949
rfemur -20.3665 2.41266 7.59294
rtibia 59.7034
rfoot -17.7443 -10.6546
rtoes -23.2486
lfemur -22.16 5.61378 -5.04106
ltibia 91.8422
lfoot -18.0456 -11.6623
ltoes -14.0213
566
root 13.138 15.4318 -22.4045 15.4221 -83.4879 -28.7809
lowerback 9.2373 4.83566 1.33471
upperback 4.866 6.38915 0.497502
thorax -0.0157318 3.15393 -0.801293
lowerneck -0.038648 7.00139 13.5316
upperneck 8.36229 9.6702 -8.9496
head 3.59214 4.9077 -4.5348
rclavicle -7.82715e-015 0
rhumerus -16.9526 -8.08459 -68.4263
rradius 41.0739
rwrist -2.48493
rhand -24.7444 45.0492
rfingers 7.12502
rthumb 1.75843 15.0767
lclavicle -7.82715e-015 0
lhumerus -34.4029 -20.6133 79.7291
lradius 64.7078
lwrist 18.4298
lhand -27.0768 9.51431
lfingers 7.12502
lthumb -0.494242 39.4935
rfemur -19.9388 3.12931 6.92476
rtibia 58.5378
rfoot -17.7664 -9.99003
rtoes -24.4496
lfemur -20.7808 5.10579 -5.05262
ltibia 92.5631
lfoot -15.6605 -12.9
ltoes -12.3388
567
root 13.251 15.4086 -22.2873 16.4571 -84.6588 -30.2198
lowerback 8.84701 5.90814 1.70037
upperback 4.8551 7.8235 -0.855733
thorax 0.464308 3.90216 -2.44585
lowerneck -0.548067 6.2807 18.274
upperneck 8.69336 8.52809 -9.55979
head 3.88763 4.46398 -5.5218
rclavicle -2.83268e-014 -1.03368e-014
rhumerus -18.6617 -12.872 -68.9746
rradius 41.6931
rwrist -2.16481
rhand -24.8039 44.6113
rfingers 7.12502
rthumb 1.70098 14.6383
lclavicle -2.83268e-014 -1.03368e-014
lhumerus -32.7674 -24.9303 77.9164
lradius 64.3977
lwrist 18.0285
lhand -30.8924 11.573
lfingers 7.12502
lthumb -4.17927 41.5117
rfemur -19.9768 4.02916 5.97397
rtibia 57.6682
rfoot -17.5081 -8.36087
rtoes -22.3802
lfemur -19.1839 4.74463 -5.46637
ltibia 92.9998
lfoot -12.6963 -13.8572
ltoes -2.17406
568
root 13.3658 15.3839 -22.16 28.1153 -85.688 -42.0945
lowerback 8.63132 6.03793 2.22683
upperback 4.42192 8.04621 -1.23269
thorax 0.273992 4.02808 -3.13243
lowerneck 0.39383 6.20554 19.8515
upperneck 8.50739 8.53434 -9.51883
head 3.75043 4.5318 -5.78278
rclavicle 1.15345e-013 -4.77083e-015
rhumerus -19.6172 -13.8777 -69.3359
rradius 42.2332
rwrist -2.57636
rhand -24.6691 44.4442
rfingers 7.12502
rthumb 1.83114 14.4723
lclavicle 1.15345e-013 -4.77083e-015
lhumerus -33.1785 -25.8059 77.1366
lradius 64.3626
lwrist 17.4584
lhand -25.2332 8.90961
lfingers 7.12502
lthumb 1.28636 38.8855
rfemur -20.4741 4.69179 5.89774
rtibia 56.9573
rfoot -16.6139 -7.26635
rtoes -22.2658
lfemur -17.7052 4.54951 -5.11747
ltibia 93.1572
lfoot -9.16459 -15.0043
ltoes -5.20073
569
root 13.4806 15.3719 -22.0156 50.6836 -86.2066 -64.558
lowerback 8.81038 5.85642 3.35884
upperback 3.52396 7.94663 -0.751747
thorax -0.676946 3.97131 -3.33222
lowerneck 1.742 5.89019 17.2869
upperneck 9.97142 8.35751 -8.85156
head 3.80272 4.43655 -5.22388
rclavicle -1.00337e-013 3.97569e-015
rhumerus -20.8167 -12.8003 -68.3108
rradius 42.7923
rwrist -3.69378
rhand -25.0853 44.4087
rfingers 7.12502
rthumb 1.42921 14.4337
lclavicle -1.00337e-013 3.97569e-015
lhumerus -34.8087 -25.353 78.313
lradius 63.991
lwrist 17.3471
lhand -17.7651 4.49758
lfingers 7.12502
lthumb 8.497 34.3066
rfemur -21.2379 5.08121 6.20627
rtibia 56.1476
rfoot -15.5688 -6.38537
rtoes -23.7977
lfemur -16.5108 4.46481 -4.54348
ltibia 92.9816
lfoot -5.3491 -15.9911
ltoes 14.8488
